#N canvas 48 56 1313 556 12;
#X obj -168 252 soundfiler;
#X obj -58 342 v snapDur9;
#X obj 12 342 v snapDur8;
#X obj 82 342 v snapDur7;
#X obj 152 342 v snapDur6;
#X obj 222 342 v snapDur5;
#X obj 292 342 v snapDur4;
#X obj 362 342 v snapDur3;
#X obj 432 342 v snapDur2;
#X obj 502 342 v snapDur1;
#X obj 580 340 v snapDur0;
#X msg 282 372 1 \$1;
#X msg 242 372 2 \$1;
#X msg 202 372 3 \$1;
#X msg 162 372 4 \$1;
#X msg 132 372 5 \$1;
#X msg 92 372 6 \$1;
#X msg 52 372 7 \$1;
#X msg 12 372 8 \$1;
#X msg -18 372 9 \$1;
#X msg -58 372 10 \$1;
#X obj -58 212 bng 15 250 50 0 empty empty empty 17 7 0 10 #fcfcfc
#000000 #000000 1;
#X floatatom 582 382 5 0 0 0 - - - 0 0 1, f 5;
#X floatatom 502 392 5 0 0 0 - - - 0 0 1, f 5;
#X floatatom 442 382 5 0 0 0 - - - 0 0 1, f 5;
#X floatatom 382 382 5 0 0 0 - - - 0 0 1, f 5;
#X obj -48 232 t b b;
#X obj -58 265 delay 100;
#X msg 322 432 1 \$1;
#X floatatom 322 402 5 0 0 0 - - - 0 0 1, f 5;
#X obj 322 457 print;
#X msg -298 422 read /tmp/durations.txt;
#X obj -222 -132 inlet;
#X obj 60 70 inlet;
#N canvas 589 175 450 350 restoreDurations 0;
#X obj 110 40 bng 15 250 50 0 empty empty empty 17 7 0 10 #fcfcfc #000000
#000000 1;
#X obj 110 10 inlet;
#X obj 110 63 t b b b b b b b b b b;
#X msg 90 100 10;
#X msg 120 100 9;
#X msg 150 100 8;
#X msg 180 100 7;
#X msg 210 100 6;
#X msg 240 100 5;
#X msg 270 100 4;
#X msg 300 100 3;
#X msg 330 100 2;
#X msg 360 100 1;
#X obj 0 160 v snapDur9;
#X obj 160 200 v snapDur8;
#X obj 250 160 v snapDur7;
#X obj 230 240 v snapDur6;
#X obj 60 240 v snapDur5;
#X obj 150 280 v snapDur4;
#X obj 350 190 v snapDur3;
#X obj 390 240 v snapDur2;
#X obj 420 140 v snapDur1;
#X obj 510 190 v snapDur0;
#X obj 0 140 coll \$1.txt;
#C restore;
#X obj 170 180 coll \$1.txt;
#C restore;
#X obj 60 220 coll \$1.txt;
#C restore;
#X obj 150 260 coll \$1.txt;
#C restore;
#X obj 230 220 coll \$1.txt;
#C restore;
#X obj 250 140 coll \$1.txt;
#C restore;
#X obj 350 170 coll \$1.txt;
#C restore;
#X obj 390 220 coll \$1.txt;
#C restore;
#X obj 420 120 coll \$1.txt;
#C restore;
#X obj 510 160 coll \$1.txt;
#C restore;
#X connect 0 0 2 0;
#X connect 1 0 0 0;
#X connect 2 0 3 0;
#X connect 2 1 4 0;
#X connect 2 2 5 0;
#X connect 2 3 6 0;
#X connect 2 4 7 0;
#X connect 2 5 8 0;
#X connect 2 6 9 0;
#X connect 2 7 10 0;
#X connect 2 8 11 0;
#X connect 2 9 12 0;
#X connect 3 0 23 0;
#X connect 4 0 14 0;
#X connect 4 0 24 0;
#X connect 5 0 15 0;
#X connect 5 0 28 0;
#X connect 6 0 27 0;
#X connect 7 0 25 0;
#X connect 8 0 26 0;
#X connect 9 0 29 0;
#X connect 10 0 30 0;
#X connect 11 0 31 0;
#X connect 12 0 32 0;
#X connect 23 0 13 0;
#X connect 24 0 14 0;
#X connect 25 0 17 0;
#X connect 26 0 18 0;
#X connect 27 0 16 0;
#X connect 28 0 15 0;
#X connect 29 0 19 0;
#X connect 30 0 20 0;
#X connect 31 0 21 0;
#X connect 32 0 22 0;
#X restore 124 239 pd restoreDurations;
#X obj 122 202 bng 15 250 50 0 empty empty empty 17 7 0 10 #fcfcfc
#000000 #000000 1;
#X obj -58 402 coll \$1.txt;
#C restore;
#X obj -250 300 symbol \$1.txt;
#X msg -250 340 write \$1;
#X obj -240 30 symbol \$1;
#X obj -268 10 bng 15 250 50 0 empty empty empty 17 7 0 10 #fcfcfc
#000000 #000000 1;
#X symbolatom -240 59 10 0 0 0 - - - 0 0 1, f 10;
#X msg -150 10 write -wave \$1 sampler_L sampler_R snapL0 snapR0 snapL1
snapR1 snapL2 snapR2 snapL3 snapR3 snapL4 snapR4 snapL5 snapR5 snapL6
snapR6 snapL7 snapR7 snapL8 snapR8 snapL9 snapR9;
#X obj -134 75 print save;
#X obj 120 100 symbol \$1;
#X obj 652 -3 openpanel;
#X obj 709 -45 bng 15 250 50 0 empty empty empty 17 7 0 10 #fcfcfc
#000000 #000000 1;
#X obj 690 303 soundfiler;
#X floatatom 700 59 13 0 0 0 - - - 0 0 1, f 13;
#X floatatom 750 145 10 0 0 0 - - - 0 0 1, f 10;
#X obj 770 81 bng 15 250 50 0 empty empty empty 17 7 0 10 #fcfcfc #000000
#000000 1;
#X floatatom 650 170 5 0 0 0 - - - 0 0 1, f 5;
#X obj 710 129 >;
#X obj 700 170 sel 1 0;
#X msg 690 220 read -resize \$1 sampler_L sampler_R;
#X msg 690 250 read \$1 sampler_L sampler_R;
#X obj 650 323 print message;
#X obj 580 160 symbol;
#X obj 590 210 symbol;
#X obj 610 37 t s s s;
#X obj 650 110 i;
#X obj 550 130 v storedDur;
#X obj 500 40 t b f;
#X floatatom 500 170 11 0 0 0 - - - 0 0 1, f 11;
#X obj 510 80 / 48;
#N canvas 0 0 450 300 resize_snapshots 0;
#X obj 208 31 inlet;
#X obj 210 140 s snapL0;
#X msg 120 100 resize \$1;
#X obj 270 140 s snapR0;
#X obj 210 160 s snapL1;
#X obj 270 160 s snapR1;
#X obj 210 180 s snapL2;
#X obj 270 180 s snapR2;
#X obj 210 200 s snapL3;
#X obj 270 200 s snapR3;
#X obj 210 220 s snapL4;
#X obj 270 220 s snapR4;
#X obj 210 240 s snapL5;
#X obj 270 240 s snapR5;
#X obj 210 260 s snapL6;
#X obj 270 260 s snapR6;
#X obj 210 280 s snapL7;
#X obj 270 280 s snapR7;
#X obj 210 300 s snapL8;
#X obj 270 300 s snapR8;
#X obj 210 320 s snapL9;
#X obj 270 320 s snapR9;
#X connect 0 0 2 0;
#X connect 2 0 1 0;
#X connect 2 0 3 0;
#X connect 2 0 4 0;
#X connect 2 0 5 0;
#X connect 2 0 6 0;
#X connect 2 0 7 0;
#X connect 2 0 8 0;
#X connect 2 0 9 0;
#X connect 2 0 10 0;
#X connect 2 0 11 0;
#X connect 2 0 12 0;
#X connect 2 0 13 0;
#X connect 2 0 14 0;
#X connect 2 0 15 0;
#X connect 2 0 16 0;
#X connect 2 0 17 0;
#X connect 2 0 18 0;
#X connect 2 0 19 0;
#X connect 2 0 20 0;
#X connect 2 0 21 0;
#X restore 350 250 pd resize_snapshots;
#X obj 750 120 v defarraysize;
#X obj 540 220 i;
#X obj 540 200 bng 15 250 50 0 empty empty empty 17 7 0 10 #fcfcfc
#000000 #000000 1;
#X floatatom 470 220 9 0 0 0 - - - 0 0 1, f 9;
#X obj 700 83 t f f f b;
#X obj 779 -72 bng 15 250 50 0 empty empty empty 17 7 0 10 #fcfcfc
#000000 #000000 1;
#X obj 404 63 print;
#X msg 520 -10 symbol \$1.wav;
#X msg 770 280 read -resize \$1 sampler_L sampler_R snapL0 snapR0 snapL1
snapR1 snapL2 snapR2 snapL3 snapR3 snapL4 snapR4 snapL5 snapR5 snapL6
snapR6 snapL7 snapR7 snapL8 snapR8 snapL9 snapR9;
#X msg 660 370 read \$1 sampler_L sampler_R snapL0 snapR0 snapL1 snapR1
snapL2 snapR2 snapL3 snapR3 snapL4 snapR4 snapL5 snapR5 snapL6 snapR6
snapL7 snapR7 snapL8 snapR8 snapL9 snapR9;
#X obj 380 150 s setDurDISABLED;
#X obj 650 -119 samplerate~;
#X obj 650 -90 / 1000;
#X floatatom 650 -61 5 0 0 0 - - - 0 0 1, f 5;
#X obj 651 -151 loadbang;
#X obj 615 -140 bng 15 250 50 0 empty empty empty 17 7 0 10 #fcfcfc
#000000 #000000 1;
#X obj 80 280 t b b b b b b b b b b;
#X obj 480 290 print thisthing;
#X obj 260 -89 soundfiler;
#X obj 130 -149 bng 15 250 50 0 empty empty empty 17 7 0 10 #fcfcfc
#000000 #000000 1;
#X floatatom 260 -60 7 0 0 0 - - - 0 0 1, f 7;
#X msg 230 -119 read -resize \$1 temp;
#X obj 200 -159 symbol \$1.wav;
#X obj 172 -117 t b s;
#X obj 191 -64 i;
#X floatatom 191 -35 8 0 0 0 - - - 0 0 1, f 8;
#N canvas 468 265 450 350 getarraylength 0;
#X obj 200 107 soundfiler;
#X floatatom 200 136 7 0 0 0 - - - 0 0 1, f 7;
#X msg 170 77 read -resize \$1 temp;
#X obj 112 79 t b s;
#X obj 131 132 i;
#X obj 110 40 inlet;
#X obj 131 161 outlet;
#X connect 0 0 1 0;
#X connect 1 0 4 1;
#X connect 2 0 0 0;
#X connect 3 0 4 0;
#X connect 3 1 2 0;
#X connect 4 0 6 0;
#X connect 5 0 3 0;
#X restore 0 -70 pd getarraylength;
#X floatatom 0 -40 8 0 0 0 - - - 0 0 1, f 8;
#N canvas 468 265 450 350 getarraylength 0;
#X obj 200 107 soundfiler;
#X floatatom 200 136 7 0 0 0 - - - 0 0 1, f 7;
#X msg 170 77 read -resize \$1 temp;
#X obj 112 79 t b s;
#X obj 131 132 i;
#X obj 110 40 inlet;
#X obj 131 161 outlet;
#X connect 0 0 1 0;
#X connect 1 0 4 1;
#X connect 2 0 0 0;
#X connect 3 0 4 0;
#X connect 3 1 2 0;
#X connect 4 0 6 0;
#X connect 5 0 3 0;
#X restore 680 30 pd getarraylength;
#X connect 1 0 20 0;
#X connect 2 0 19 0;
#X connect 3 0 18 0;
#X connect 4 0 17 0;
#X connect 5 0 16 0;
#X connect 6 0 15 0;
#X connect 7 0 14 0;
#X connect 7 0 25 0;
#X connect 8 0 13 0;
#X connect 8 0 24 0;
#X connect 9 0 12 0;
#X connect 9 0 23 0;
#X connect 10 0 11 0;
#X connect 10 0 22 0;
#X connect 11 0 36 0;
#X connect 12 0 36 0;
#X connect 13 0 36 0;
#X connect 14 0 36 0;
#X connect 15 0 36 0;
#X connect 16 0 36 0;
#X connect 17 0 36 0;
#X connect 18 0 36 0;
#X connect 19 0 36 0;
#X connect 20 0 36 0;
#X connect 21 0 26 0;
#X connect 26 0 27 0;
#X connect 26 1 82 0;
#X connect 27 0 37 0;
#X connect 28 0 30 0;
#X connect 29 0 28 0;
#X connect 31 0 36 0;
#X connect 32 0 21 0;
#X connect 32 0 39 0;
#X connect 33 0 35 0;
#X connect 33 0 44 0;
#X connect 35 0 34 0;
#X connect 37 0 38 0;
#X connect 38 0 36 0;
#X connect 39 0 42 0;
#X connect 40 0 39 0;
#X connect 42 0 43 0;
#X connect 42 0 0 0;
#X connect 44 0 73 0;
#X connect 45 0 59 0;
#X connect 46 0 45 0;
#X connect 48 0 70 0;
#X connect 50 0 66 0;
#X connect 52 0 51 0;
#X connect 52 0 53 0;
#X connect 53 0 57 0;
#X connect 53 0 60 0;
#X connect 53 0 68 0;
#X connect 53 1 58 0;
#X connect 54 0 56 0;
#X connect 54 0 47 0;
#X connect 55 0 56 0;
#X connect 55 0 47 0;
#X connect 57 0 74 0;
#X connect 58 0 75 0;
#X connect 58 0 56 0;
#X connect 58 0 47 0;
#X connect 58 0 83 0;
#X connect 59 0 94 0;
#X connect 59 1 57 1;
#X connect 59 2 58 1;
#X connect 60 0 61 0;
#X connect 60 0 76 0;
#X connect 62 0 76 0;
#X connect 62 1 61 0;
#X connect 62 1 64 0;
#X connect 64 0 63 0;
#X connect 64 0 61 0;
#X connect 66 0 49 0;
#X connect 66 0 52 1;
#X connect 67 0 69 0;
#X connect 68 0 67 0;
#X connect 69 0 65 0;
#X connect 70 1 52 0;
#X connect 70 2 60 1;
#X connect 70 2 62 0;
#X connect 70 2 67 1;
#X connect 70 3 66 0;
#X connect 73 0 72 0;
#X connect 73 0 59 0;
#X connect 74 0 56 0;
#X connect 74 0 47 0;
#X connect 75 0 56 0;
#X connect 75 0 47 0;
#X connect 77 0 78 0;
#X connect 78 0 79 0;
#X connect 79 0 64 1;
#X connect 80 0 77 0;
#X connect 81 0 77 0;
#X connect 82 0 1 0;
#X connect 82 1 2 0;
#X connect 82 2 3 0;
#X connect 82 3 4 0;
#X connect 82 4 5 0;
#X connect 82 5 6 0;
#X connect 82 6 7 0;
#X connect 82 7 8 0;
#X connect 82 8 9 0;
#X connect 82 9 10 0;
#X connect 84 0 86 0;
#X connect 85 0 88 0;
#X connect 86 0 90 1;
#X connect 87 0 84 0;
#X connect 88 0 89 0;
#X connect 88 0 92 0;
#X connect 89 0 90 0;
#X connect 89 1 87 0;
#X connect 90 0 91 0;
#X connect 92 0 93 0;
#X connect 94 0 48 0;
