#N canvas 285 75 658 650 10;
#X obj 470 2 cnv 15 170 60 empty empty empty 20 12 0 14 #fa77ed #404040
0;
#X obj 227 157 cnv 15 162 348 empty empty empty 20 12 0 14 #e0e0e0
#404040 0;
#X obj 227 511 cnv 15 161 93 empty grey DADOS\ DO\ PROJETO 19 12 0
10 #888181 #000000 0;
#X obj 395 546 cnv 15 245 57 empty empty empty 20 12 0 14 #ff4905 #404040
0;
#X obj -6 469 cnv 15 226 135 empty empty empty 17 16 0 10 #93ee2f #404040
0;
#X obj 396 462 cnv 15 246 70 empty tables MEMÒRIA\ DE\ LOOP\ EM\ AMOSTRAS
20 9 0 10 #f66943 #000000 0;
#X obj -6 302 cnv 15 225 154 empty inpan BALANÇO\ DE\ ENTRADA\ MONO
5 16 0 10 #97c1e7 #000000 0;
#X obj -6 66 cnv 15 226 229 empty empty empty 20 12 0 10 #e8d4e4 #404040
0;
#X obj 227 66 cnv 15 163 84 empty empty empty 20 12 0 14 #80ffff #404040
0;
#X obj 397 275 cnv 15 246 174 empty empty empty 20 12 0 14 #faff00
#404040 0;
#X obj 397 66 cnv 15 246 200 empty empty empty 20 12 0 14 #80ff80 #404040
0;
#X obj 236 76 tgl 15 0 empty rec GRAVAR 20 7 0 10 #fcfcfc #000000 #000000
0 1;
#X obj 415 106 bng 15 250 50 0 empty replay REINICIAR\ LOOPING 25 7
0 10 #fcfcfc #000000 #000000;
#X msg 414 73 0;
#X obj 417 226 hsl 128 15 0 1 0 1 empty vol VOLUME -2 -8 0 10 #fcfcfc
#000000 #000000 9650 1;
#X obj 316 126 tgl 15 0 empty overlay SOBREPOR 17 7 0 10 #fcfcfc #000000
#000000 0 1;
#X msg 421 373 start;
#X msg 419 403 stop;
#X obj 421 293 bng 15 250 50 0 empty create CREAR\ ARQUIVO\ DE\ SOM
21 7 0 10 #fcfcfc #000000 #000000;
#X msg 421 343 open \$1;
#X obj 421 323 savepanel;
#N canvas 765 220 450 425 inputmodule 0;
#X obj 30 140 env~;
#X obj 37 169 - 90;
#X obj 28 215 outlet;
#X obj 160 -90 inlet;
#X obj 240 170 outlet~;
#X obj 70 -20 adc~ 1 2, f 9;
#X obj 103 121 env~;
#X obj 110 150 - 90;
#X obj 101 196 outlet;
#X obj 300 170 outlet~;
#X obj 195 39 spigot~;
#X obj 250 10 r stereo;
#X floatatom 260 50 5 0 0 0 - - -, f 5;
#X floatatom 160 -59 5 0 0 0 - - -, f 5;
#X msg 160 -35 \$1 20;
#X obj 160 -10 line~;
#X obj 90 70 *~;
#X obj 140 70 *~;
#X connect 0 0 1 0;
#X connect 1 0 2 0;
#X connect 3 0 13 0;
#X connect 5 0 16 0;
#X connect 5 1 10 0;
#X connect 6 0 7 0;
#X connect 7 0 8 0;
#X connect 10 1 17 0;
#X connect 11 0 10 1;
#X connect 11 0 12 0;
#X connect 13 0 14 0;
#X connect 14 0 15 0;
#X connect 15 0 17 1;
#X connect 15 0 16 1;
#X connect 16 0 0 0;
#X connect 16 0 4 0;
#X connect 17 0 9 0;
#X connect 17 0 6 0;
#X restore 8 123 pd inputmodule;
#X obj 8 87 hsl 128 15 0 10 0 1 empty infade GANHO\ DE\ ENTRADA 0 -8
0 10 #fcfcfc #000000 #000000 7850 1;
#X obj 8 160 vu 15 120 empty empty -1 -8 0 10 #404040 #000000 1 0;
#N canvas 224 246 1057 732 sampler 0;
#X obj 564 189 sel 1 0;
#X obj 530 230 timer;
#X msg 470 220 stop;
#X obj 540 390 phasor~;
#X obj 540 415 *~ 1;
#X obj 460 590 dac~;
#X obj 530 255 t f f;
#X obj 530 290 expr 1000 / $f1;
#X msg 560 360 0;
#X obj 540 320 t f b;
#X msg 420 220 start;
#X floatatom 500 370 5 0 0 0 - - -, f 5;
#X floatatom 590 250 5 0 0 0 - - -, f 5;
#X obj 640 247 metro 500;
#X obj 630 290 bng 20 250 50 0 empty empty empty 0 -6 0 8 #fcfcfc #000000
#000000;
#X msg 620 170 0;
#X msg 670 320 1;
#X obj 590 390 * 48;
#X obj 30 -10 inlet~;
#X obj 341 -10 inlet;
#X obj 523 0 inlet;
#X obj 601 -16 inlet;
#X obj 665 -13 inlet;
#X obj 860 -20 inlet;
#X obj 720 207 spigot;
#X obj 724 238 bng 15 250 50 0 empty empty empty 0 -6 0 8 #fcfcfc #000000
#000000;
#X msg 725 260 1;
#X obj 780 207 sel 0;
#X obj 524 495 *~;
#X text 320 10 record basis;
#X text 520 20 overlay;
#X text 608 5 stop;
#X text 870 10 vol;
#X obj 569 587 outlet~;
#X obj 290 500 outlet;
#X obj 560 440 tabread4~ sampler_L;
#X obj 290 210 pan~;
#X msg 310 180 0;
#X obj 279 19 sel 1;
#X floatatom 330 170 5 0 0 0 - - -, f 5;
#X obj 560 470 tabread4~ sampler_R;
#X obj 570 500 *~;
#X obj 370 140 sel 1;
#X floatatom 340 210 5 0 0 0 - - -, f 5;
#X obj 620 590 outlet~;
#N canvas 215 148 450 325 percent 0;
#X obj 90 45 r pan;
#X floatatom 140 45 5 0 0 0 - - -, f 5;
#X floatatom 90 100 5 0 0 0 - - -, f 5;
#X obj 130 105 i;
#X floatatom 130 130 5 0 0 0 - - -, f 5;
#X obj 90 75 expr (90 * $f1 / 100) + 0.5;
#X floatatom 50 150 5 0 0 0 - - -, f 5;
#X obj 50 125 / 2;
#X obj 70 178 outlet;
#X obj 130 180 outlet;
#X connect 0 0 5 0;
#X connect 1 0 5 0;
#X connect 3 0 4 0;
#X connect 3 0 7 0;
#X connect 4 0 9 0;
#X connect 5 0 2 0;
#X connect 5 0 3 0;
#X connect 6 0 8 0;
#X connect 7 0 6 0;
#X restore 439 80 pd percent;
#X floatatom 439 110 5 0 0 0 - - -, f 5;
#X floatatom 499 110 5 0 0 0 - - -, f 5;
#X obj 370 160 random 90;
#X obj 370 180 - 45;
#X obj 713 303 v sampDur;
#X obj 470 170 v storedDur;
#X obj 470 170 v storedDur;
#X floatatom 490 190 5 0 0 0 - - -, f 5;
#X text 680 5 restart;
#X obj 470 140 r setDur;
#X floatatom 480 270 5 0 0 0 - - -, f 5;
#N canvas 687 260 450 350 storeSnapDur 0;
#X obj 302 62 sel 0 1 2 3 4 5 6 7 8 9;
#X obj 62 112 v sampDur;
#X obj 132 112 v sampDur;
#X obj 202 112 v sampDur;
#X obj 272 112 v sampDur;
#X obj 342 112 v sampDur;
#X obj 412 112 v sampDur;
#X obj 482 112 v sampDur;
#X obj 552 112 v sampDur;
#X obj 12 152 v snapDur0;
#X obj 92 152 v snapDur1;
#X obj 172 152 v snapDur2;
#X obj 252 152 v snapDur3;
#X obj 332 152 v snapDur4;
#X obj 412 152 v snapDur5;
#X obj 492 152 v snapDur6;
#X obj 572 152 v snapDur7;
#X obj 652 152 v snapDur8;
#X obj 732 152 v snapDur9;
#X obj 622 112 v sampDur;
#X obj 692 112 v sampDur;
#X obj 270 10 inlet;
#X obj 302 40 v currentsnap;
#X connect 0 0 1 0;
#X connect 0 1 2 0;
#X connect 0 2 3 0;
#X connect 0 3 4 0;
#X connect 0 4 5 0;
#X connect 0 5 6 0;
#X connect 0 6 7 0;
#X connect 0 7 8 0;
#X connect 0 8 19 0;
#X connect 0 9 20 0;
#X connect 1 0 9 0;
#X connect 2 0 10 0;
#X connect 3 0 11 0;
#X connect 4 0 12 0;
#X connect 5 0 13 0;
#X connect 6 0 14 0;
#X connect 7 0 15 0;
#X connect 8 0 16 0;
#X connect 19 0 17 0;
#X connect 20 0 18 0;
#X connect 21 0 22 0;
#X connect 22 0 0 0;
#X restore 780 80 pd storeSnapDur;
#X obj 780 60 sel 1;
#X obj 730 370 s loopStart;
#X obj 420 -10 inlet;
#N canvas 68 262 658 441 loadloop 0;
#X obj 87 42 inlet;
#X obj 92 77 openpanel;
#X obj 149 35 bng 15 250 50 0 empty empty empty 17 7 0 10 #fcfcfc #000000
#000000;
#X obj 130 360 soundfiler;
#X obj 140 106 wavinfo;
#X floatatom 140 139 13 0 0 0 - - -, f 13;
#X floatatom 190 225 10 0 0 0 - - -, f 10;
#X obj 210 161 bng 15 250 50 0 empty empty empty 17 7 0 10 #fcfcfc
#000000 #000000;
#X floatatom 90 250 5 0 0 0 - - -, f 5;
#X obj 150 209 >;
#X obj 140 250 sel 1 0;
#X msg 100 300 read -resize \$1 sampler_L sampler_R;
#X msg 130 330 read \$1 sampler_L sampler_R;
#X obj 90 380 print message;
#X obj 20 240 symbol;
#X obj 40 290 symbol;
#X obj 50 117 t s s s;
#X obj 90 190 i;
#X obj -10 210 v storedDur;
#X obj -70 210 s setDur;
#X obj -60 120 t b f;
#X floatatom -60 250 11 0 0 0 - - -, f 11;
#X obj -50 160 / 48;
#N canvas 0 0 450 300 resize_snapshots 0;
#X obj 208 31 inlet;
#X obj 210 140 s snapL0;
#X msg 120 100 resize \$1;
#X obj 270 140 s snapR0;
#X obj 210 160 s snapL1;
#X obj 270 160 s snapR1;
#X obj 210 180 s snapL2;
#X obj 270 180 s snapR2;
#X obj 210 200 s snapL3;
#X obj 270 200 s snapR3;
#X obj 210 220 s snapL4;
#X obj 270 220 s snapR4;
#X obj 210 240 s snapL5;
#X obj 270 240 s snapR5;
#X obj 210 260 s snapL6;
#X obj 270 260 s snapR6;
#X obj 210 280 s snapL7;
#X obj 270 280 s snapR7;
#X obj 210 300 s snapL8;
#X obj 270 300 s snapR8;
#X obj 210 320 s snapL9;
#X obj 270 320 s snapR9;
#X connect 0 0 2 0;
#X connect 2 0 1 0;
#X connect 2 0 3 0;
#X connect 2 0 4 0;
#X connect 2 0 5 0;
#X connect 2 0 6 0;
#X connect 2 0 7 0;
#X connect 2 0 8 0;
#X connect 2 0 9 0;
#X connect 2 0 10 0;
#X connect 2 0 11 0;
#X connect 2 0 12 0;
#X connect 2 0 13 0;
#X connect 2 0 14 0;
#X connect 2 0 15 0;
#X connect 2 0 16 0;
#X connect 2 0 17 0;
#X connect 2 0 18 0;
#X connect 2 0 19 0;
#X connect 2 0 20 0;
#X connect 2 0 21 0;
#X restore -50 330 pd resize_snapshots;
#X obj 190 200 v defarraysize;
#X obj -20 300 i;
#X obj -20 280 bng 15 250 50 0 empty empty empty 17 7 0 10 #fcfcfc
#000000 #000000;
#X floatatom -90 300 9 0 0 0 - - -, f 9;
#X obj 140 163 t f f f b;
#X obj 15 51 samplerate~;
#X obj 15 80 / 1000;
#X floatatom 15 109 5 0 0 0 - - -, f 5;
#X obj 16 19 loadbang;
#X obj -20 30 bng 15 250 50 0 empty empty empty 17 7 0 10 #fcfcfc #000000
#000000;
#X connect 0 0 1 0;
#X connect 1 0 16 0;
#X connect 2 0 1 0;
#X connect 4 0 5 0;
#X connect 5 0 28 0;
#X connect 7 0 24 0;
#X connect 9 0 8 0;
#X connect 9 0 10 0;
#X connect 10 0 14 0;
#X connect 10 0 17 0;
#X connect 10 0 26 0;
#X connect 10 1 15 0;
#X connect 11 0 13 0;
#X connect 11 0 3 0;
#X connect 12 0 13 0;
#X connect 12 0 3 0;
#X connect 14 0 11 0;
#X connect 15 0 12 0;
#X connect 16 0 4 0;
#X connect 16 1 14 1;
#X connect 16 2 15 1;
#X connect 17 0 19 0;
#X connect 17 0 18 0;
#X connect 20 0 19 0;
#X connect 20 1 18 0;
#X connect 20 1 22 0;
#X connect 22 0 21 0;
#X connect 22 0 18 0;
#X connect 24 0 6 0;
#X connect 24 0 9 1;
#X connect 25 0 27 0;
#X connect 26 0 25 0;
#X connect 27 0 23 0;
#X connect 28 1 9 0;
#X connect 28 2 17 1;
#X connect 28 2 20 0;
#X connect 28 2 25 1;
#X connect 28 3 24 0;
#X connect 29 0 30 0;
#X connect 30 0 31 0;
#X connect 31 0 22 1;
#X connect 32 0 29 0;
#X connect 33 0 29 0;
#X restore 420 30 pd loadloop;
#X text 430 10 load file;
#X obj 815 311 samplerate~;
#X obj 815 340 / 1000;
#X floatatom 815 369 5 0 0 0 - - -, f 5;
#X obj 816 279 loadbang;
#X obj 780 290 bng 15 250 50 0 empty empty empty 17 7 0 10 #fcfcfc
#000000 #000000;
#X obj 360 100 spigot;
#X obj 190 117 r manualpan;
#X obj 190 142 bng 15 250 50 0 empty empty empty 17 7 0 10 #fcfcfc
#000000 #000000;
#X msg 190 165 0;
#X obj 190 190 s randomisein;
#X floatatom 320 40 5 0 0 0 - - -, f 5;
#X obj 350 60 r randomiseout;
#X obj 280 70 spigot;
#X obj 180 10 loadbang;
#X msg 180 60 1;
#X obj 150 100 s randomisein;
#X obj 180 35 del 10;
#X floatatom 150 150 5 0 0 0 - - -, f 5;
#X obj 310 130 bng 15 250 50 0 empty empty empty 17 7 0 10 #fcfcfc
#000000 #000000;
#X obj 370 300 tabwrite~ sampler_L;
#X obj 390 250 tabwrite~ sampler_R;
#X obj 340 140 bng 15 250 50 0 empty empty empty 17 7 0 10 #fcfcfc
#000000 #000000;
#X floatatom 290 270 5 0 0 0 - - -, f 5;
#X floatatom 320 100 5 0 0 0 - - -, f 5;
#X msg 400 80 1;
#X floatatom 830 171 5 0 0 0 - - -, f 5;
#X msg 830 195 \$1 20;
#X obj 830 220 line~;
#X obj 50 260 spigot~;
#X obj 58 209 r stereo;
#X obj 90 -10 inlet~;
#X obj 160 260 spigot~;
#X obj 128 219 r stereo;
#X connect 0 0 1 0;
#X connect 0 0 10 0;
#X connect 0 1 1 1;
#X connect 0 1 2 0;
#X connect 1 0 6 0;
#X connect 1 0 12 0;
#X connect 2 0 82 0;
#X connect 2 0 83 0;
#X connect 3 0 4 0;
#X connect 4 0 35 0;
#X connect 4 0 40 0;
#X connect 6 0 7 0;
#X connect 6 0 13 0;
#X connect 6 0 56 0;
#X connect 6 1 13 1;
#X connect 6 1 17 0;
#X connect 7 0 9 0;
#X connect 8 0 3 1;
#X connect 9 0 3 0;
#X connect 9 0 11 0;
#X connect 9 1 8 0;
#X connect 10 0 82 0;
#X connect 10 0 83 0;
#X connect 12 0 50 0;
#X connect 13 0 14 0;
#X connect 14 0 8 0;
#X connect 14 0 24 0;
#X connect 14 0 34 0;
#X connect 14 0 59 0;
#X connect 14 0 87 0;
#X connect 15 0 0 0;
#X connect 16 0 13 0;
#X connect 17 0 4 1;
#X connect 18 0 91 0;
#X connect 19 0 0 0;
#X connect 19 0 38 0;
#X connect 20 0 24 1;
#X connect 20 0 27 0;
#X connect 20 0 58 0;
#X connect 20 0 68 0;
#X connect 21 0 13 0;
#X connect 21 0 3 0;
#X connect 22 0 7 0;
#X connect 22 0 8 0;
#X connect 22 0 16 0;
#X connect 23 0 88 0;
#X connect 24 0 25 0;
#X connect 25 0 26 0;
#X connect 26 0 0 0;
#X connect 27 0 2 0;
#X connect 28 0 33 0;
#X connect 28 0 5 0;
#X connect 35 0 28 0;
#X connect 35 0 82 0;
#X connect 36 0 82 0;
#X connect 36 1 83 0;
#X connect 37 0 36 1;
#X connect 37 0 85 0;
#X connect 38 0 75 0;
#X connect 39 0 36 1;
#X connect 40 0 41 0;
#X connect 40 0 83 0;
#X connect 41 0 5 1;
#X connect 41 0 44 0;
#X connect 42 0 48 0;
#X connect 45 0 46 0;
#X connect 45 1 47 0;
#X connect 46 0 49 1;
#X connect 47 0 48 1;
#X connect 48 0 49 0;
#X connect 49 0 43 0;
#X connect 49 0 36 1;
#X connect 49 0 85 0;
#X connect 52 0 53 0;
#X connect 53 0 6 0;
#X connect 53 0 50 0;
#X connect 55 0 52 0;
#X connect 58 0 57 0;
#X connect 60 0 61 0;
#X connect 63 0 64 0;
#X connect 64 0 65 0;
#X connect 64 0 17 1;
#X connect 66 0 63 0;
#X connect 67 0 63 0;
#X connect 68 0 42 0;
#X connect 68 0 84 0;
#X connect 69 0 70 0;
#X connect 69 0 36 1;
#X connect 69 0 80 0;
#X connect 69 0 85 0;
#X connect 70 0 71 0;
#X connect 71 0 72 0;
#X connect 73 0 75 1;
#X connect 74 0 68 1;
#X connect 74 0 73 0;
#X connect 74 0 86 0;
#X connect 75 0 37 0;
#X connect 75 0 81 0;
#X connect 76 0 79 0;
#X connect 77 0 75 1;
#X connect 77 0 78 0;
#X connect 79 0 77 0;
#X connect 87 0 68 0;
#X connect 88 0 89 0;
#X connect 89 0 90 0;
#X connect 90 0 41 1;
#X connect 90 0 28 1;
#X connect 91 0 36 0;
#X connect 91 1 82 0;
#X connect 92 0 91 1;
#X connect 93 0 94 0;
#X connect 94 1 83 0;
#X connect 95 0 94 1;
#X restore 240 300 pd sampler;
#X obj 240 367 bng 15 250 50 0 empty cycle início\ do\ ciclo 20 4
0 10 #fcfcfc #000000 #000000;
#N canvas 827 127 450 325 diskrecord 0;
#X obj 93 125 writesf~ 2;
#X obj 20 40 inlet~;
#X obj 142 45 inlet;
#X obj 70 40 inlet~;
#X connect 1 0 0 0;
#X connect 2 0 0 0;
#X connect 3 0 0 1;
#X restore 290 340 pd diskrecord;
#X obj -3 338 loadbang;
#X msg -2 363 100;
#X obj -3 388 s pan;
#X floatatom 24 363 5 0 0 0 - - -, f 5;
#X obj 11 493 hradio 15 0 0 10 store snapin SALVAR\ SNAPSHOT 0 -8 0
10 #d52424 #000000 #000000 0;
#X obj 12 540 hradio 15 0 0 10 recall snapout LEMBRAR\ SNAPSHOT 0 -8
0 10 #39d61b #000000 #000000 0;
#X obj 416 151 bng 15 250 50 0 empty clearloop APAGAR\ LOOP 17 7 0
10 #fcfcfc #000000 #000000;
#X obj 511 152 bng 15 250 50 0 empty clearsnapshots APAGAR\ SNAPSHOTS
17 7 0 10 #fcfcfc #000000 #000000;
#X text 14 509 1;
#X text 29 509 2;
#X text 44 509 3;
#X text 58 509 4;
#X text 73 509 5;
#X text 88 509 6;
#X text 104 509 7;
#X text 119 509 8;
#X text 133 509 9;
#X text 145 509 10;
#X text 15 557 1;
#X text 30 557 2;
#X text 45 557 3;
#X text 59 557 4;
#X text 74 557 5;
#X text 89 557 6;
#X text 105 557 7;
#X text 120 557 8;
#X text 134 557 9;
#X text 146 557 10;
#X obj 232 546 bng 15 250 50 0 empty save RESGATAR 17 7 0 10 #fcfcfc
#000000 #000000;
#X obj 313 546 bng 15 250 50 0 empty restore SALVAR 17 7 0 10 #fcfcfc
#000000 #000000;
#X obj 12 574 tgl 15 1 wait empty wait 17 7 0 10 #fcfcfc #000000 #000000
1 1;
#X obj 275 102 bng 15 250 50 0 empty load CARREGAR 17 7 0 10 #fcfcfc
#000000 #000000;
#X obj 426 489 tables 480000;
#X obj 230 573 dataStore /tmp/test;
#X obj 4 431 tgl 15 1 randomiseout randomisein randomizar 17 7 0 10
#fcfcfc #000000 #000000 1 1;
#X obj 104 436 hsl 85 14 -45 45 0 1 manualpan manpan BALANÇO\ MANUAL
0 -8 0 10 #fcfcfc #000000 #000000 3700 1;
#X obj 106 270 tgl 15 1 stereo ster ENTRADA\ ESTEREO 17 7 0 10 #fcfcfc
#000000 #000000 0 1;
#X obj 54 160 vu 15 120 empty empty -1 -8 0 10 #404040 #000000 1 0
;
#X obj 490 13 bng 15 250 50 0 empty empty English 17 7 0 10 #fcfcfc
#000000 #000000;
#N canvas 163 56 948 782 language 0;
#X obj 20 75 l2s;
#X msg 150 40 GANHO DE ENTRADA;
#X msg 20 40 INPUT GAIN;
#X obj 27 4 r en;
#X obj 140 10 r pt;
#X msg 20 100 \; infade label \$1;
#X obj 50 225 l2s;
#X obj 57 154 r en;
#X obj 170 160 r pt;
#X msg 50 190 STEREO INPUT;
#X msg 150 190 ENTRADA ESTEREO;
#X msg 50 250 \; ster label \$1;
#X obj 20 365 l2s;
#X obj 27 294 r en;
#X obj 140 300 r pt;
#X msg 20 330 MONO INPUT PANNING;
#X msg 20 390 \; inpan label \$1;
#X msg 190 440 \; randomisein label \$1;
#X obj 160 425 l2s;
#X obj 167 354 r en;
#X obj 280 360 r pt;
#X msg 160 390 randomise;
#X msg 280 390 randomizar;
#X obj 3 521 l2s;
#X obj 10 450 r en;
#X obj 123 456 r pt;
#X msg 33 536 \; manpan label \$1;
#X msg 3 486 MANUAL PAN;
#X obj 220 555 l2s;
#X obj 227 484 r en;
#X obj 320 535 l2s;
#X obj 510 470 r pt;
#X msg 350 550 \; percent2 label \$1;
#X msg 250 570 \; percent1 label \$1;
#X obj 500 565 l2s;
#X obj 600 545 l2s;
#X msg 630 560 \; percent2 label \$1;
#X msg 530 580 \; percent1 label \$1;
#X msg 500 530 % separação estereofônica;
#X msg 600 510 aleatória;
#X msg 220 520 % random stereo;
#X msg 320 500 separation;
#X obj -10 655 l2s;
#X obj -3 584 r en;
#X obj 110 590 r pt;
#X msg -10 620 STORE SNAPSHOT;
#X msg 110 620 SALVAR SNAPSHOT;
#X msg 20 670 \; snapin label \$1;
#X obj 230 685 l2s;
#X obj 237 614 r en;
#X obj 350 620 r pt;
#X msg 230 650 RECALL SNAPSHOT;
#X msg 260 700 \; snapout label \$1;
#X msg 350 650 LEMBRAR SNAPSHOT;
#X obj 320 255 l2s;
#X obj 327 184 r en;
#X msg 350 270 \; rec label \$1;
#X msg 320 220 RECORD;
#X msg 390 220 GRAVAR;
#X obj 390 180 r pt;
#X obj 370 375 l2s;
#X obj 377 304 r en;
#X obj 440 300 r pt;
#X msg 400 390 \; load label \$1;
#X msg 370 340 LOAD;
#X msg 440 340 CARREGAR;
#X obj 170 110 inlet;
#X obj 260 110 inlet;
#X obj 170 135 s en;
#X obj 260 140 s pt;
#X obj 510 355 l2s;
#X obj 517 284 r en;
#X obj 580 280 r pt;
#X msg 540 370 \; overlay label \$1;
#X msg 510 320 OVERLAY;
#X msg 580 320 SOBREPOR;
#X obj 480 695 l2s;
#X obj 487 624 r en;
#X obj 550 620 r pt;
#X msg 480 660 PROJECT DATA;
#X msg 570 670 DADOS DO PROJETO;
#X msg 510 710 \; grey label \$1;
#X obj 500 205 l2s;
#X obj 507 134 r en;
#X obj 570 130 r pt;
#X msg 530 220 \; cycle label \$1;
#X msg 500 170 cycle start;
#X msg 590 170 início do ciclo;
#X obj 650 85 l2s;
#X obj 657 14 r en;
#X obj 720 10 r pt;
#X msg 680 100 \; stop label \$1;
#X obj 700 225 l2s;
#X obj 707 154 r en;
#X obj 770 150 r pt;
#X msg 730 240 \; replay label \$1;
#X obj 790 105 l2s;
#X obj 797 34 r en;
#X obj 860 30 r pt;
#X msg 820 120 \; clearloop label \$1;
#X msg 790 70 CLEAR LOOP;
#X msg 880 70 APAGAR LOOP;
#X obj 840 245 l2s;
#X obj 847 174 r en;
#X obj 910 170 r pt;
#X msg 870 260 \; clearsnapshots label \$1;
#X msg 840 210 CLEAR SNAPSHOTS;
#X msg 950 210 APAGAR SNAPSHOTS;
#X obj 720 405 l2s;
#X obj 727 334 r en;
#X obj 790 330 r pt;
#X msg 750 420 \; create label \$1;
#X msg 720 370 CREATE SOUND FILE;
#X msg 850 370 CREAR ARQUIVO DE SOM;
#X obj 740 535 l2s;
#X obj 747 464 r en;
#X obj 810 460 r pt;
#X msg 770 550 \; rec2disk label \$1;
#X msg 740 500 RECORD TO DISK;
#X obj 753 671 l2s;
#X obj 760 600 r en;
#X obj 823 596 r pt;
#X msg 780 690 \; stoprec label \$1;
#X msg 753 636 STOP RECORDING;
#X msg 870 500 GRAVAR AO HD;
#X msg 883 636 PARAR DE GRAVAR;
#X obj 990 95 l2s;
#X obj 997 24 r en;
#X obj 1060 20 r pt;
#X msg 1020 110 \; tables label \$1;
#X msg 990 60 LOOP MEMORY IN SAMPLES;
#X msg 1040 80 MEMÒRIA DE LOOP EM AMOSTRAS;
#X msg 123 486 BALANÇO MANUAL;
#X obj 300 150 tables;
#X obj 300 150 tables;
#X obj 500 565 tables;
#X obj 500 565 tables;
#X obj 500 565 tables;
#X obj 500 565 tables;
#X obj 360 80 sendcanvas 1;
#X obj 370 10 loadbang;
#X obj 330 -20 r en;
#X obj 450 -30 r pt;
#X msg 490 -10 obj 500 565 AJUDA;
#X obj 430 60 s \$0-helpfile 1;
#X obj 510 10 s \$0-helpfile 1;
#X obj 344 117 iemguts/canvasselect;
#X msg 410 40 obj 530 565 AJUDA;
#X msg 300 40 obj 460 565 HELP;
#X obj 210 0 namecanvas \$0-helpfile;
#X msg 140 330 BALANÇO DE ENTRADA MONO;
#X msg 650 50 STOP LOOPS;
#X msg 740 50 PARAR LOOPING;
#X msg 660 200 REPLAY LOOPS;
#X msg 760 190 REINICIAR LOOPING;
#X obj 1050 375 l2s;
#X obj 1057 304 r en;
#X obj 1120 300 r pt;
#X obj 1060 235 l2s;
#X obj 1067 164 r en;
#X obj 1130 160 r pt;
#X msg 1060 200 SAVE;
#X msg 1120 200 SALVAR;
#X msg 1050 340 RESTORE;
#X msg 1110 340 RESGATAR;
#X msg 1080 390 \; restore label \$1;
#X msg 1090 250 \; save label \$1;
#X connect 0 0 5 0;
#X connect 1 0 0 0;
#X connect 2 0 0 0;
#X connect 3 0 2 0;
#X connect 4 0 1 0;
#X connect 6 0 11 0;
#X connect 7 0 9 0;
#X connect 8 0 10 0;
#X connect 9 0 6 0;
#X connect 10 0 6 0;
#X connect 12 0 16 0;
#X connect 13 0 15 0;
#X connect 14 0 150 0;
#X connect 15 0 12 0;
#X connect 18 0 17 0;
#X connect 19 0 21 0;
#X connect 20 0 22 0;
#X connect 21 0 18 0;
#X connect 22 0 18 0;
#X connect 23 0 26 0;
#X connect 24 0 27 0;
#X connect 25 0 132 0;
#X connect 27 0 23 0;
#X connect 28 0 33 0;
#X connect 29 0 41 0;
#X connect 29 0 40 0;
#X connect 30 0 32 0;
#X connect 31 0 38 0;
#X connect 31 0 39 0;
#X connect 34 0 37 0;
#X connect 35 0 36 0;
#X connect 38 0 34 0;
#X connect 39 0 35 0;
#X connect 40 0 28 0;
#X connect 41 0 30 0;
#X connect 42 0 47 0;
#X connect 43 0 45 0;
#X connect 44 0 46 0;
#X connect 45 0 42 0;
#X connect 46 0 42 0;
#X connect 48 0 52 0;
#X connect 49 0 51 0;
#X connect 50 0 53 0;
#X connect 51 0 48 0;
#X connect 53 0 48 0;
#X connect 54 0 56 0;
#X connect 55 0 57 0;
#X connect 57 0 54 0;
#X connect 58 0 54 0;
#X connect 59 0 58 0;
#X connect 60 0 63 0;
#X connect 61 0 64 0;
#X connect 62 0 65 0;
#X connect 64 0 60 0;
#X connect 65 0 60 0;
#X connect 66 0 68 0;
#X connect 67 0 69 0;
#X connect 70 0 73 0;
#X connect 71 0 74 0;
#X connect 72 0 75 0;
#X connect 74 0 70 0;
#X connect 75 0 70 0;
#X connect 76 0 81 0;
#X connect 77 0 79 0;
#X connect 78 0 80 0;
#X connect 79 0 76 0;
#X connect 80 0 76 0;
#X connect 82 0 85 0;
#X connect 83 0 86 0;
#X connect 84 0 87 0;
#X connect 86 0 82 0;
#X connect 87 0 82 0;
#X connect 88 0 91 0;
#X connect 89 0 151 0;
#X connect 90 0 152 0;
#X connect 92 0 95 0;
#X connect 93 0 153 0;
#X connect 94 0 154 0;
#X connect 96 0 99 0;
#X connect 97 0 100 0;
#X connect 98 0 101 0;
#X connect 100 0 96 0;
#X connect 101 0 96 0;
#X connect 102 0 105 0;
#X connect 103 0 106 0;
#X connect 104 0 107 0;
#X connect 106 0 102 0;
#X connect 107 0 102 0;
#X connect 108 0 111 0;
#X connect 109 0 112 0;
#X connect 110 0 113 0;
#X connect 112 0 108 0;
#X connect 113 0 108 0;
#X connect 114 0 117 0;
#X connect 115 0 118 0;
#X connect 116 0 124 0;
#X connect 118 0 114 0;
#X connect 119 0 122 0;
#X connect 120 0 123 0;
#X connect 121 0 125 0;
#X connect 123 0 119 0;
#X connect 124 0 114 0;
#X connect 125 0 119 0;
#X connect 126 0 129 0;
#X connect 127 0 130 0;
#X connect 128 0 131 0;
#X connect 130 0 126 0;
#X connect 131 0 126 0;
#X connect 132 0 23 0;
#X connect 143 0 145 0;
#X connect 147 0 139 0;
#X connect 148 0 139 0;
#X connect 150 0 12 0;
#X connect 151 0 88 0;
#X connect 152 0 88 0;
#X connect 153 0 92 0;
#X connect 154 0 92 0;
#X connect 155 0 165 0;
#X connect 156 0 163 0;
#X connect 157 0 164 0;
#X connect 158 0 166 0;
#X connect 159 0 161 0;
#X connect 160 0 162 0;
#X connect 161 0 158 0;
#X connect 162 0 158 0;
#X connect 163 0 155 0;
#X connect 164 0 155 0;
#X restore 490 40 pd language;
#X obj 560 13 bng 15 250 50 0 empty empty Português 17 7 0 10 #fcfcfc
#000000 #000000;
#X obj 37 384 cnv 15 143 25 empty percent1 %\ separação\ estereofônica
3 7 0 10 #97c1e7 #404040 0;
#X obj 50 404 cnv 15 98 9 empty percent2 aleatória -10 -1 0 10 #97c1e7
#404040 0;
#X obj 459 80 cnv 15 98 9 empty stop PARAR\ LOOPING -10 -1 0 10 #80ff80
#000000 0;
#N canvas 0 0 450 300 messages 0;
#X msg 80 70 \; sampler_L const 0 \; sampler_R const 0;
#X obj 80 20 inlet;
#X connect 1 0 0 0;
#X restore 416 172 pd messages;
#N canvas 0 0 450 300 messages 0;
#X obj 80 20 inlet;
#X msg 80 70 snapL0 const 0 \; snapL1 const 0 \; snapL2 const 0 \;
snapL3 const 0 \; snapL4 const 0 \; snapL5 const 0 \; snapL6 const
0 \; snapL7 const 0 \; snapL8 const 0 \; snapL9 const 0 \; snapR0 const
0 \; snapR1 const 0 \; snapR2 const 0 \; snapR3 const 0 \; snapR4 const
0 \; snapR5 const 0 \; snapR6 const 0 \; snapR7 const 0 \; snapR8 const
0 \; snapR9 const 0;
#X msg 190 40 0;
#X obj 210 90 v snapDur0;
#X obj 280 90 v snapDur1;
#X obj 350 90 v snapDur2;
#X obj 210 110 v snapDur3;
#X obj 280 110 v snapDur4;
#X obj 350 110 v snapDur5;
#X obj 210 130 v snapDur6;
#X obj 280 130 v snapDur7;
#X obj 350 130 v snapDur8;
#X obj 210 150 v snapDur9;
#X connect 0 0 1 0;
#X connect 0 0 2 0;
#X connect 2 0 3 0;
#X connect 2 0 4 0;
#X connect 2 0 5 0;
#X connect 2 0 6 0;
#X connect 2 0 7 0;
#X connect 2 0 8 0;
#X connect 2 0 9 0;
#X connect 2 0 10 0;
#X connect 2 0 11 0;
#X connect 2 0 12 0;
#X restore 511 173 pd messages;
#X obj 472 381 cnv 15 98 9 empty rec2disk GRAVAR\ AO\ HD -10 -1 0 10
#faff00 #000000 0;
#X obj 472 410 cnv 15 98 9 empty stoprec PARAR\ DE\ GRAVAR -10 -1 0
10 #faff00 #000000 0;
#X obj 470 567 HELP;
#X obj 517 567 AJUDA;
#X connect 11 0 24 2;
#X connect 12 0 24 6;
#X connect 13 0 24 5;
#X connect 14 0 24 7;
#X connect 15 0 24 4;
#X connect 16 0 26 2;
#X connect 17 0 26 2;
#X connect 18 0 20 0;
#X connect 19 0 26 2;
#X connect 20 0 19 0;
#X connect 21 0 23 0;
#X connect 21 1 64 0;
#X connect 21 2 24 0;
#X connect 21 3 24 1;
#X connect 22 0 21 0;
#X connect 24 0 25 0;
#X connect 24 1 26 0;
#X connect 24 2 26 1;
#X connect 27 0 28 0;
#X connect 28 0 29 0;
#X connect 30 0 29 0;
#X connect 33 0 71 0;
#X connect 34 0 72 0;
#X connect 55 0 60 0;
#X connect 56 0 60 1;
#X connect 58 0 24 3;
#X connect 65 0 66 0;
#X connect 67 0 66 1;
