#N canvas 40 181 1304 505 12;
#X obj 30 30 table sampler_L \$1;
#X obj 30 70 table sampler_R \$1;
#X obj 540 30 r store;
#X floatatom 540 142 5 0 0 0 - - -, f 5;
#X floatatom 880 140 5 0 0 0 - - -, f 5;
#X obj 770 -50 r recall;
#X msg 570 213 copy sampler_L;
#X obj 220 30 table snapL0 \$1;
#X obj 220 60 table snapL1 \$1;
#X obj 220 90 table snapL2 \$1;
#X obj 220 120 table snapL3 \$1;
#X obj 220 150 table snapL4 \$1;
#X obj 220 180 table snapL5 \$1;
#X obj 220 210 table snapL6 \$1;
#X obj 220 240 table snapL7 \$1;
#X obj 220 270 table snapL8 \$1;
#X obj 220 300 table snapL9 \$1;
#X obj 380 30 table snapR0 \$1;
#X obj 380 60 table snapR1 \$1;
#X obj 380 90 table snapR2 \$1;
#X obj 380 120 table snapR3 \$1;
#X obj 380 150 table snapR4 \$1;
#X obj 380 180 table snapR5 \$1;
#X obj 380 210 table snapR6 \$1;
#X obj 380 240 table snapR7 \$1;
#X obj 380 270 table snapR8 \$1;
#X obj 380 300 table snapR9 \$1;
#X obj 570 255 arraycopy snapL0;
#X msg 560 279 copy sampler_R;
#X obj 560 305 arraycopy snapR0, f 17;
#X msg 840 269 copy snapL\$1;
#X obj 840 299 arraycopy sampler_L;
#X msg 990 269 copy snapR\$1;
#X obj 990 299 arraycopy sampler_R;
#X obj 830 189 i;
#X obj 810 159 bng 15 250 50 0 empty empty empty 17 7 0 10 #fcfcfc
#000000 #000000;
#X obj 540 169 t b f;
#X msg 680 200 snapL\$1;
#X msg 750 200 snapR\$1;
#X obj 750 230 symbol;
#X obj 700 230 symbol;
#X text 320 0 snapshots;
#X text 40 0 main stereo arrays;
#N canvas 58 417 450 325 storeSnapDur 0;
#X obj 302 62 sel 0 1 2 3 4 5 6 7 8 9;
#X obj 62 112 v sampDur;
#X obj 132 112 v sampDur;
#X obj 202 112 v sampDur;
#X obj 272 112 v sampDur;
#X obj 342 112 v sampDur;
#X obj 412 112 v sampDur;
#X obj 482 112 v sampDur;
#X obj 552 112 v sampDur;
#X obj 12 152 v snapDur0;
#X obj 92 152 v snapDur1;
#X obj 172 152 v snapDur2;
#X obj 252 152 v snapDur3;
#X obj 332 152 v snapDur4;
#X obj 412 152 v snapDur5;
#X obj 492 152 v snapDur6;
#X obj 572 152 v snapDur7;
#X obj 652 152 v snapDur8;
#X obj 732 152 v snapDur9;
#X obj 622 112 v sampDur;
#X obj 692 112 v sampDur;
#X obj 270 10 inlet;
#X connect 0 0 1 0;
#X connect 0 1 2 0;
#X connect 0 2 3 0;
#X connect 0 3 4 0;
#X connect 0 4 5 0;
#X connect 0 5 6 0;
#X connect 0 6 7 0;
#X connect 0 7 8 0;
#X connect 0 8 19 0;
#X connect 0 9 20 0;
#X connect 1 0 9 0;
#X connect 2 0 10 0;
#X connect 3 0 11 0;
#X connect 4 0 12 0;
#X connect 5 0 13 0;
#X connect 6 0 14 0;
#X connect 7 0 15 0;
#X connect 8 0 16 0;
#X connect 19 0 17 0;
#X connect 20 0 18 0;
#X connect 21 0 0 0;
#X restore 610 160 pd storeSnapDur;
#N canvas 633 267 867 475 recallSnapDur 0;
#X obj 292 62 sel 0 1 2 3 4 5 6 7 8 9;
#X obj 20 118 v snapDur0;
#X obj 100 118 v snapDur1;
#X obj 180 118 v snapDur2;
#X obj 260 118 v snapDur3;
#X obj 340 118 v snapDur4;
#X obj 420 118 v snapDur5;
#X obj 500 118 v snapDur6;
#X obj 580 118 v snapDur7;
#X obj 660 118 v snapDur8;
#X obj 740 118 v snapDur9;
#X obj 292 30 inlet;
#X obj 340 220 v storedDur;
#X obj 340 220 v storedDur;
#X obj 280 178 t b f;
#X obj 260 220 s setDur;
#X text 430 220 see "pd sampler";
#X msg 110 240;
#X connect 0 0 1 0;
#X connect 0 1 2 0;
#X connect 0 2 3 0;
#X connect 0 3 4 0;
#X connect 0 4 5 0;
#X connect 0 5 6 0;
#X connect 0 6 7 0;
#X connect 0 7 8 0;
#X connect 0 8 9 0;
#X connect 0 9 10 0;
#X connect 1 0 14 0;
#X connect 2 0 14 0;
#X connect 3 0 14 0;
#X connect 4 0 14 0;
#X connect 5 0 14 0;
#X connect 6 0 14 0;
#X connect 7 0 14 0;
#X connect 8 0 14 0;
#X connect 9 0 14 0;
#X connect 10 0 14 0;
#X connect 11 0 0 0;
#X connect 14 0 15 0;
#X connect 14 1 13 0;
#X restore 950 220 pd recallSnapDur;
#X obj 930 170 v currentsnap;
#X obj 970 30 r loopStart;
#X obj 970 59 bng 15 250 50 0 empty empty empty 17 7 0 10 #fcfcfc #000000
#000000;
#X obj 990 110 timer;
#X obj 850 70 t f b;
#X floatatom 990 139 20 0 0 0 - - -, f 20;
#X obj 1070 170 t b f;
#X obj 1080 210 v sampDur;
#X obj 1140 240 -;
#X floatatom 1140 269 13 0 0 0 - - -, f 13;
#X obj 880 110 pipe 0;
#X obj 900 -69 r wait;
#X obj 910 50 spigot;
#X msg 870 0 0;
#X obj 880 -30 sel 0;
#X obj 610 -58 loadbang;
#X obj 610 -29 i \$1;
#X obj 610 0 v defarraysize;
#X msg 780 60 clear;
#X obj 770 -10 t f b;
#X obj 35 131 table temp \$1;
#X connect 2 0 3 0;
#X connect 3 0 36 0;
#X connect 4 0 45 0;
#X connect 5 0 64 0;
#X connect 6 0 27 0;
#X connect 6 0 28 0;
#X connect 28 0 29 0;
#X connect 30 0 31 0;
#X connect 32 0 33 0;
#X connect 34 0 30 0;
#X connect 34 0 32 0;
#X connect 34 0 44 0;
#X connect 35 0 34 0;
#X connect 36 0 6 0;
#X connect 36 0 28 0;
#X connect 36 1 37 0;
#X connect 36 1 38 0;
#X connect 36 1 43 0;
#X connect 37 0 40 0;
#X connect 38 0 39 0;
#X connect 39 0 29 1;
#X connect 40 0 27 1;
#X connect 46 0 47 0;
#X connect 47 0 48 0;
#X connect 48 0 50 0;
#X connect 49 0 55 0;
#X connect 49 1 48 1;
#X connect 50 0 51 0;
#X connect 51 0 52 0;
#X connect 51 1 53 1;
#X connect 52 0 53 0;
#X connect 53 0 54 0;
#X connect 54 0 57 0;
#X connect 55 0 4 0;
#X connect 55 0 34 0;
#X connect 56 0 57 1;
#X connect 56 0 59 0;
#X connect 57 0 55 1;
#X connect 58 0 55 1;
#X connect 59 0 58 0;
#X connect 60 0 61 0;
#X connect 61 0 62 0;
#X connect 63 0 55 0;
#X connect 64 0 49 0;
#X connect 64 1 63 0;
